<svg xmlns="http://www.w3.org/2000/svg" viewBox="0 0 85.28 85.28"><title>Fichier 10</title><g id="Calque_2" data-name="Calque 2"><g id="Calque_1-2" data-name="Calque 1"><path d="M67.45,80.07c7.21,0,10.17-4.39,11-6.2L73.3,72.42a6.15,6.15,0,0,1-5.61,3.21c-5.2,0-6.2-5-6.29-5.93H79.73a19.78,19.78,0,0,0,.14-2c0-8.19-6.33-12.18-12.36-12.18C59.05,55.48,55,62,55,67.89A12,12,0,0,0,67.45,80.07Zm0-20.19a6.12,6.12,0,0,1,6.2,5.89H61.3A6.15,6.15,0,0,1,67.41,59.87Z"/><path d="M33.5,71.6H44.72l3,8h6.43L41.92,47.47H36.39L24.12,79.62h6.43Zm5.66-17,4.44,12.63H34.54Z"/><path d="M85.28,0H0V85.28H85.28ZM79.62,79.62h-74v-74h74Z"/></g></g></svg>
