<svg xmlns="http://www.w3.org/2000/svg" viewBox="0 0 65.41 93.14"><title>Fichier 4</title><g id="Calque_2" data-name="Calque 2"><g id="Calque_1-2" data-name="Calque 1"><polygon points="26.1 12.47 26.1 8.33 20.3 8.33 20.3 4.14 26.1 4.14 26.1 0 20.3 0 16.16 0 16.16 0.05 16.16 4.14 16.16 8.33 16.16 12.42 16.16 12.47 20.3 12.47 26.1 12.47"/><polygon points="37.48 8.18 32.74 4.29 37.48 4.29 37.48 0.05 27.58 0.05 27.58 4.29 32.31 8.18 27.58 8.18 27.58 12.42 37.48 12.42 37.48 8.18"/><polygon points="49.5 8.18 44.77 4.29 49.5 4.29 49.5 0.05 39.6 0.05 39.6 4.29 44.33 8.18 39.6 8.18 39.6 12.42 49.5 12.42 49.5 8.18"/><path d="M0,18.56,6.19,85.35h.07l26.44,7.79,26.44-7.79h.07l6.19-66.79ZM49.84,74.91h0L32.71,80l-17.09-5h0l-1.28-13.8h7.49l.58,6.25h0l10.32,3,10.32-3h0l1-10.75H13.87l-.79-8.49H44.84l.63-6.84H19.94v.12H12.46l-.9-9.67H53.84Z"/></g></g></svg>
