<svg width="86" height="113" viewBox="0 0 86 113" fill="none" xmlns="http://www.w3.org/2000/svg">
<path fill-rule="evenodd" clip-rule="evenodd" d="M61.9628 3.79704H8.09971C5.63938 3.79704 3.64487 5.79636 3.64487 8.26259V104.881C3.64487 107.347 5.63938 109.346 8.09971 109.346H77.7572C80.2176 109.346 82.2121 107.347 82.2121 104.881V24.095H66.0126C64.6877 24.095 63.5113 23.4572 62.7725 22.4712H49.6107C48.3806 22.4712 47.3833 21.4715 47.3833 20.2384C47.3833 19.0052 48.3806 18.0056 49.6107 18.0056H61.9628V3.79704ZM85.8569 22.8045V104.881C85.8569 109.365 82.2306 113 77.7572 113H8.09971C3.62637 113 0 109.365 0 104.881V8.26259C0 3.77851 3.62637 0.143414 8.09971 0.143414H63.2502C63.3028 0.0942051 63.3567 0.046384 63.4119 0L63.555 0.143414H63.5827L85.6822 22.296L85.8569 22.1209V22.499L86 22.6424C85.9821 22.6638 85.9639 22.6851 85.9456 22.7061C85.9166 22.7394 85.887 22.7722 85.8569 22.8045ZM66.0126 20.4414H78.6496L65.6077 7.36807V20.0354C65.6077 20.2596 65.789 20.4414 66.0126 20.4414ZM23.6917 30.5903C28.5005 30.5903 32.3989 26.6826 32.3989 21.8622C32.3989 17.0418 28.5005 13.1341 23.6917 13.1341C18.8828 13.1341 14.9845 17.0418 14.9845 21.8622C14.9845 26.6826 18.8828 30.5903 23.6917 30.5903ZM23.6917 30.5903C19.274 30.5903 15.3647 32.772 12.9774 36.119C12.2913 37.0811 13.0576 38.3036 14.2373 38.3036H33.146C34.3257 38.3036 35.0921 37.0811 34.406 36.119C32.0187 32.772 28.1093 30.5903 23.6917 30.5903ZM49.6107 30.9963C48.3806 30.9963 47.3833 31.9959 47.3833 33.2291C47.3833 34.4622 48.3806 35.4618 49.6107 35.4618H70.67C71.9002 35.4618 72.8974 34.4622 72.8974 33.2291C72.8974 31.9959 71.9002 30.9963 70.67 30.9963H49.6107ZM13.972 56.5717C12.7418 56.5717 11.7446 57.5713 11.7446 58.8045C11.7446 60.0376 12.7418 61.0373 13.972 61.0373H50.4207C51.6509 61.0373 52.6481 60.0376 52.6481 58.8045C52.6481 57.5713 51.6509 56.5717 50.4207 56.5717H13.972ZM62.1653 56.5717C60.9351 56.5717 59.9379 57.5713 59.9379 58.8045C59.9379 60.0376 60.9351 61.0373 62.1653 61.0373H70.67C71.9002 61.0373 72.8974 60.0376 72.8974 58.8045C72.8974 57.5713 71.9002 56.5717 70.67 56.5717H62.1653ZM13.972 71.5922C12.7418 71.5922 11.7446 72.5918 11.7446 73.825C11.7446 75.0581 12.7418 76.0577 13.972 76.0577H42.321C43.5512 76.0577 44.5484 75.0581 44.5484 73.825C44.5484 72.5918 43.5512 71.5922 42.321 71.5922H13.972ZM62.1653 71.5922C60.9351 71.5922 59.9379 72.5918 59.9379 73.825C59.9379 75.0581 60.9351 76.0577 62.1653 76.0577H70.67C71.9002 76.0577 72.8974 75.0581 72.8974 73.825C72.8974 72.5918 71.9002 71.5922 70.67 71.5922H62.1653ZM13.972 86.6127C12.7418 86.6127 11.7446 87.6123 11.7446 88.8454C11.7446 90.0786 12.7418 91.0782 13.972 91.0782H50.4207C51.6509 91.0782 52.6481 90.0786 52.6481 88.8454C52.6481 87.6123 51.6509 86.6127 50.4207 86.6127H13.972ZM62.1653 86.6127C60.9351 86.6127 59.9379 87.6123 59.9379 88.8454C59.9379 90.0786 60.9351 91.0782 62.1653 91.0782H70.67C71.9002 91.0782 72.8974 90.0786 72.8974 88.8454C72.8974 87.6123 71.9002 86.6127 70.67 86.6127H62.1653Z" fill="#FBFBFB"/>
</svg>
