<svg xmlns="http://www.w3.org/2000/svg" viewBox="0 0 75.39 91.4"><title>Git</title><g id="Calque_2" data-name="Calque 2"><g id="Calque_1-2" data-name="Calque 1"><path d="M73.64,49.5,41.91,17.76a6,6,0,0,0-8.43,0l-6.35,6.35,8.79,8.79a6.17,6.17,0,0,1,8,8l7.75,7.75a5.78,5.78,0,1,1-3.47,3.23l-7.52-7.52-.49.19V64.46a6.19,6.19,0,1,1-4.74.26V44.26a6.17,6.17,0,0,1-3-8.12l-8.68-8.68-22,22a6,6,0,0,0,0,8.43L33.48,89.66a6,6,0,0,0,8.43,0L73.64,57.92A6,6,0,0,0,73.64,49.5Z"/><polygon points="35.49 0 35.49 4.15 35.49 8.3 35.49 12.45 39.64 12.45 39.64 8.3 39.64 4.15 39.64 0 35.49 0"/><polygon points="52.92 0 49.19 0 45.03 0 41.3 0 41.3 4.15 45.03 4.15 45.03 12.45 49.19 12.45 49.19 4.15 52.92 4.15 52.92 0"/><polygon points="28.95 6.23 28.95 8.3 27.29 8.3 27.29 4.15 28.95 4.15 33.11 4.15 33.11 0 28.95 0 27.29 0 23.14 0 23.14 4.15 23.14 8.3 23.14 12.45 27.29 12.45 28.95 12.45 33.11 12.45 33.11 8.3 33.11 6.23 28.95 6.23"/></g></g></svg>
