<svg xmlns="http://www.w3.org/2000/svg" viewBox="0 0 65.54 93.4"><title>HTML 5</title><g id="Calque_2" data-name="Calque 2"><g id="Calque_1-2" data-name="Calque 1"><path d="M0,18.68,6.21,85.6h.07L32.77,93.4,59.26,85.6h.07l6.21-66.91ZM52.71,43H21.35l.55,6H52.16L49.75,74.94h0l-16.94,5-16.94-5h0L14.54,61.56h8.53l.44,4.78h0l9.23,2.72L42,66.34h0l.84-9.07H14.15L11.82,32.16h41.9Z"/><polygon points="13.26 0 13.26 4.15 9.11 4.15 9.11 0 4.95 0 4.95 4.15 4.95 8.3 4.95 12.45 9.11 12.45 9.11 8.3 13.26 8.3 13.26 12.45 17.41 12.45 17.41 8.3 17.41 4.15 17.41 0 13.26 0"/><polygon points="30.69 0 26.96 0 22.8 0 19.07 0 19.07 4.15 22.8 4.15 22.8 12.45 26.96 12.45 26.96 4.15 30.69 4.15 30.69 0"/><polygon points="42.73 0 39.75 4.24 36.92 0 32.77 0 32.77 12.45 36.92 12.45 36.92 6.23 37.62 7.27 39.63 10.3 41.77 7.27 42.73 5.9 42.73 12.45 46.88 12.45 46.88 0 42.73 0"/><polygon points="53.11 8.3 53.11 0 48.96 0 48.96 8.3 48.96 12.45 53.11 12.45 58.92 12.45 58.92 8.3 53.11 8.3"/></g></g></svg>
