<svg xmlns="http://www.w3.org/2000/svg" viewBox="0 0 85.28 85.28"><title>Adobe Indesign</title><g id="Calque_2" data-name="Calque 2"><g id="Calque_1-2" data-name="Calque 1"><path d="M77.14,74.45c-.51,0-1.4-1.18-1.4-1.81V46.56H69.67V60.06a9.19,9.19,0,0,0-8-4.57c-5.63,0-10.6,4.89-10.6,12.27,0,6.51,4.31,12.32,11.27,12.32a9.49,9.49,0,0,0,8.24-4.57s-.4,4.44,4,4.44a13.8,13.8,0,0,0,2.58-.32h0Zm-7.47-3.53a6.51,6.51,0,0,1-5.75,4c-4,0-6.57-3.56-6.57-7,0-3.15,2.07-7.24,6.2-7.24,3.7,0,5.87,4,6.11,4.62Z"/><rect x="40.42" y="47.47" width="6.25" height="32.15"/><path d="M0,85.28H85.28V0H0ZM5.66,5.66h74v74h-74Z"/></g></g></svg>
