<svg xmlns="http://www.w3.org/2000/svg" viewBox="0 0 69.61 65.94"><title>Fichier 18</title><g id="Calque_2" data-name="Calque 2"><g id="Calque_1-2" data-name="Calque 1"><path d="M7.94,9.54c-3.6,18.73,1.88,32,16.53,41.58C35.29,58.2,55.13,61,67.78,48.89A27.64,27.64,0,0,1,55.53,61.54c-14.06,7-27.59,5.64-40.11-3.76C6.36,51,1,41.84.09,30.39-.52,22.47,2,15.61,7.94,9.54Z"/><path d="M25.87,3.75c-2.22,13.78,2.3,24,13.29,30.15,9,5,21.11,6.17,30.45-3.06-1.83,6.27-10,12-18,12.69C38.88,44.59,28,38.46,22.78,27.27,18.87,18.91,20.09,9.65,25.87,3.75Z"/><path d="M40.85,0c-1.13,7.52,1.73,13.31,7.77,17.34,5.77,3.85,12,4.86,18.36,1-1.76,3.75-6.25,6.22-11.54,6C48,24.11,42.53,20.46,39.38,13.76A12.43,12.43,0,0,1,40.85,0Z"/></g></g></svg>