<svg xmlns="http://www.w3.org/2000/svg" viewBox="0 0 65.34 93.04"><title>JavaScript</title><g id="Calque_2" data-name="Calque 2"><g id="Calque_1-2" data-name="Calque 1"><polygon points="27.66 4.14 27.66 8.32 21.87 8.32 21.87 12.45 27.66 12.45 31.79 12.45 31.79 12.41 31.79 8.32 31.79 4.14 31.79 0.05 31.79 0 27.66 0 27.66 4.14"/><polygon points="43.16 8.17 38.43 4.28 43.16 4.28 43.16 0.05 33.27 0.05 33.27 4.28 38 8.17 33.27 8.17 33.27 12.41 43.16 12.41 43.16 8.17"/><path d="M0,18.54,6.19,85.26h.07L32.67,93l26.41-7.79h.07l6.19-66.71ZM44.79,48.08l.63-6.83H19.92v.12H12.45l-.9-9.66H53.79l-4,43.12h0l-17.07,5-17.07-5h0L14.27,61h7.48l.58,6.25h0l10.31,3,10.31-3h0l1-10.74"/></g></g></svg>
