<svg xmlns="http://www.w3.org/2000/svg" viewBox="0 0 85.28 85.28"><title>Adobe Photoshop</title><g id="Calque_2" data-name="Calque 2"><g id="Calque_1-2" data-name="Calque 1"><path d="M71.11,65.4c-.88-.21-4.66-.83-4.66-3,0-1.73,1.42-2.67,3.62-2.67A12.28,12.28,0,0,1,77,62.36L79.4,58.7a13.22,13.22,0,0,0-9.28-3.26c-5,0-9.33,2.81-9.33,7.83,0,5.21,6.93,6.19,8.47,6.61,1.84.51,5.21,1.17,5.21,3.21,0,1.66-1.59,2.63-3.89,2.63-3.55,0-6.88-2.1-8.33-3.12L60,76.4a17.09,17.09,0,0,0,10.73,3.67c3,0,9.6-.92,9.6-7.52C80.31,67,72.74,65.82,71.11,65.4Z"/><path d="M47.75,47.47H34.12V79.62h6.25V68.84H48c5.57,0,10-4.85,10-10.69C58,53.2,54,47.47,47.75,47.47Zm-.14,15.89H40.37V52.95h7c2.65,0,4.3,2.49,4.3,5.21C51.64,61.32,49.81,63.36,47.62,63.36Z"/><path d="M0,85.28H85.28V0H0ZM5.66,5.66h74v74h-74Z"/></g></g></svg>
