<svg xmlns="http://www.w3.org/2000/svg" viewBox="0 0 56.1 65.36"><title>PHP</title><g id="Calque_2" data-name="Calque 2"><g id="Calque_1-2" data-name="Calque 1"><path d="M45.1,25.93H42.34l-.77,4.34h2.76a2.71,2.71,0,0,0,2.55-2.17A1.8,1.8,0,0,0,45.1,25.93Z"/><path d="M17.28,25.93H14.52l-.77,4.34h2.76a2.71,2.71,0,0,0,2.55-2.17A1.8,1.8,0,0,0,17.28,25.93Z"/><path d="M7.84,0A7.84,7.84,0,0,0,0,8.56L4.7,58.83h.06L25.83,65a7.84,7.84,0,0,0,4.43,0l21.07-6.21h.06L56.06,8.56A7.84,7.84,0,0,0,48.26,0ZM22.23,28.1A6.8,6.8,0,0,1,16,33.43H13.2l-1.24,7H8.36l3.11-17.66h6.36A4.51,4.51,0,0,1,22.23,28.1Zm12.95,5.18H32L33,28a1.79,1.79,0,0,0-1.8-2.12H28.45l-.77,4.34-.56,3.16h-3.6l3.11-17.66h3.6l-1.24,7h2.76A4.44,4.44,0,0,1,36.16,28ZM50,28.1a6.8,6.8,0,0,1-6.27,5.33H41l-1.24,7h-3.6L39.3,22.77h6.36A4.51,4.51,0,0,1,50,28.1Z"/></g></g></svg>
