<svg xmlns="http://www.w3.org/2000/svg" viewBox="0 0 85.28 85.28"><title>Adobe Premiere Pro</title><g id="Calque_2" data-name="Calque 2"><g id="Calque_1-2" data-name="Calque 1"><path d="M72.23,61V55.89H66.66V79.62h6.07V65.26c.63-1.36,2.72-4.12,8.06-4.12V55.62C75.31,55,72.65,60.15,72.23,61Z"/><path d="M52.67,47.47H39V79.62h6.25V68.84H52.9c5.57,0,10-4.85,10-10.69C62.9,53.2,58.91,47.47,52.67,47.47Zm-.14,15.89H45.29V52.95h7c2.65,0,4.3,2.49,4.3,5.21C56.57,61.32,54.73,63.36,52.54,63.36Z"/><path d="M0,85.28H85.28V0H0ZM5.66,5.66h74v74h-74Z"/></g></g></svg>
