<svg xmlns="http://www.w3.org/2000/svg" viewBox="0 0 96.6 87.46"><title>Fichier 9</title><g id="Calque_2" data-name="Calque 2"><g id="Calque_1-2" data-name="Calque 1"><path d="M96.22,28.37,78.82,2.7a2.18,2.18,0,0,0-1.67-1L48.43,0h-.26L19.45,1.74a2.18,2.18,0,0,0-1.67,1l-.58.86h0L.37,28.37A2.18,2.18,0,0,0,.5,31L46.62,86.67a2.18,2.18,0,0,0,3.35,0L96.1,31A2.18,2.18,0,0,0,96.22,28.37ZM21.39,6,41.72,4.75,20.16,24.16ZM76,24.16,54.41,4.73,74.77,6Zm-1.14,7.38-26.79,49-26.79-49ZM23.29,27.19,48.08,4.88,72.87,27.19Zm-7,4.35L35.21,66.07,6.62,31.55Zm63.5,0H90L60.1,67.62Zm.74-4.35L79.5,11.46,90.17,27.19Zm-65,0H6.43l10.18-15Z"/></g></g></svg>