<svg xmlns="http://www.w3.org/2000/svg" viewBox="0 0 109.68 109.68"><title>Fichier 19</title><g id="Calque_2" data-name="Calque 2"><g id="Calque_1-2" data-name="Calque 1"><path d="M68.67,28.43q-13.83,0-27.65,0c-7.42,0-12.58,5.17-12.6,12.58q0,13.83,0,27.65c0,7.41,5.18,12.58,12.58,12.6,4.61,0,9.22,0,13.83,0s9.22,0,13.83,0c7.4,0,12.59-5.19,12.6-12.58q0-13.83,0-27.65C81.25,33.62,76.08,28.44,68.67,28.43Zm-13.79,43A16.55,16.55,0,1,1,71.4,54.86,16.61,16.61,0,0,1,54.88,71.4Zm17.23-29.6a4.16,4.16,0,1,1-.06-8.32,4.21,4.21,0,0,1,4.21,4.27A4.16,4.16,0,0,1,72.12,41.79Z"/><path d="M54.84,0a54.84,54.84,0,1,0,54.84,54.84A54.84,54.84,0,0,0,54.84,0ZM87,71.39c-.11.39-.23.78-.32,1.18a17.1,17.1,0,0,1-8.79,12.07A43.79,43.79,0,0,1,71.39,87H38.29c-.39-.11-.78-.24-1.18-.32A17.08,17.08,0,0,1,25,77.86a43.24,43.24,0,0,1-2.31-6.47V38.29c.11-.39.24-.78.32-1.18A17.07,17.07,0,0,1,31.83,25a43.71,43.71,0,0,1,6.46-2.31h33.1c.31.09.61.21.93.27a17,17,0,0,1,12.25,8.72A43.84,43.84,0,0,1,87,38.29Z"/><path d="M54.91,44A10.85,10.85,0,1,0,65.69,54.91,10.92,10.92,0,0,0,54.91,44Z"/></g></g></svg>