<svg xmlns="http://www.w3.org/2000/svg" viewBox="0 0 110.67 110.67"><title>Linkedin</title><g id="Calque_2" data-name="Calque 2"><g id="Calque_1-2" data-name="Calque 1"><path d="M55.34,0a55.34,55.34,0,1,0,55.34,55.34A55.34,55.34,0,0,0,55.34,0ZM39.88,64.19q0,8.67,0,17.35c0,.86,0,.86-.83.86-3.53,0-7.05,0-10.58,0-.64,0-.78-.21-.78-.81q0-17.48,0-35c0-.6.14-.81.78-.8q5.35,0,10.71,0c.58,0,.72.19.72.74C39.87,52.45,39.88,58.32,39.88,64.19Zm-5-23.39a8.19,8.19,0,0,1-4.58-.72A6.42,6.42,0,0,1,27.2,33c.93-3.4,3.95-4.78,6.95-4.76a6.28,6.28,0,0,1,.73,12.54ZM83,82.41q-5.35,0-10.7,0c-.64,0-.78-.2-.78-.8q0-9.7,0-19.41a10.5,10.5,0,0,0-1.06-4.73,5.45,5.45,0,0,0-5.54-2.84,6.72,6.72,0,0,0-6.08,6.53c0,4.56,0,9.11,0,13.67,0,2.26,0,4.51,0,6.77,0,.68-.2.82-.84.81q-5.25,0-10.51,0c-.64,0-.83-.15-.83-.82q.06-15.89.06-31.79,0-1.68-.05-3.35c0-.43.09-.61.57-.61q5.51,0,11,0c.42,0,.57.13.56.55,0,1.25,0,2.49,0,3.74,0,.2,0,.41,0,.7.67-.78,1.24-1.5,1.86-2.17a11.36,11.36,0,0,1,7.88-3.6,14.87,14.87,0,0,1,7.41,1.25A12.24,12.24,0,0,1,82,52.68a21.57,21.57,0,0,1,1.64,8.87c0,6.71,0,13.41,0,20.12C83.66,82.2,83.55,82.41,83,82.41Z"/></g></g></svg>
