<svg xmlns="http://www.w3.org/2000/svg" viewBox="0 0 110.79 110.8"><title>Codepen</title><g id="Calque_2" data-name="Calque 2"><g id="Calque_1-2" data-name="Calque 1"><path d="M56.39,110.79a55.4,55.4,0,1,1,54.4-56.1A55.4,55.4,0,0,1,56.39,110.79ZM21.13,55.36c0,3.35,0,6.7,0,10.05a3.4,3.4,0,0,0,1.62,3.08Q38.12,78.71,53.46,89a3.16,3.16,0,0,0,3.85,0Q72.65,78.73,88,68.51a3.41,3.41,0,0,0,1.65-3.07q0-10,0-20a3.56,3.56,0,0,0-1.74-3.22Q72.68,32.09,57.46,21.91a3.38,3.38,0,0,0-4.18,0Q38.11,32.11,22.89,42.2a3.61,3.61,0,0,0-1.77,3.3C21.16,48.78,21.13,52.07,21.13,55.36Z"/><path d="M29.39,45l23-15.32c0,.4.07.64.07.88,0,4,0,8,0,12a1.31,1.31,0,0,1-.65,1.26c-3.84,2.54-7.66,5.12-11.5,7.65a1.15,1.15,0,0,1-1,.14C36,49.42,32.77,47.23,29.39,45Z"/><path d="M81.4,45l-5.13,3.43c-1.55,1-3.09,2.1-4.67,3.1a1.11,1.11,0,0,1-1,0q-5.89-3.88-11.73-7.83a1.21,1.21,0,0,1-.51-.82c0-4.29,0-8.57,0-12.86,0-.05.05-.11.14-.29Z"/><path d="M29.39,65.83c3.4-2.27,6.66-4.46,9.94-6.62a.93.93,0,0,1,.83.06Q46.08,63.19,52,67.16a1.1,1.1,0,0,1,.46.75c0,4.35,0,8.69,0,13.28Z"/><path d="M58.35,81.19c0-4.58,0-8.89,0-13.21a1.2,1.2,0,0,1,.48-.84C62.91,64.41,67,61.7,71.1,58.94l10.3,6.89Z"/><path d="M45,55.4c3.41-2.28,6.69-4.48,10-6.66a.93.93,0,0,1,.83,0c3.3,2.17,6.59,4.38,10,6.65l-1.63,1.1c-2.7,1.81-5.39,3.63-8.12,5.4A1.25,1.25,0,0,1,55,62C51.67,59.88,48.39,57.67,45,55.4Z"/><path d="M34.39,55.4l-7.31,4.89V50.51Z"/><path d="M76.4,55.4l7.3-4.88v9.76Z"/></g></g></svg>