<svg xmlns="http://www.w3.org/2000/svg" viewBox="0 0 109.93 109.93"><title>Fichier 20</title><g id="Calque_2" data-name="Calque 2"><g id="Calque_1-2" data-name="Calque 1"><path d="M45.29,57.52a8.17,8.17,0,0,0-2.18-.39c-2.7-.06-5.4,0-8.1-.06-.35,0-.39.16-.39.44,0,1.43,0,2.85,0,4.28s0,2.85,0,4.28c0,.39.12.49.49.48,1,0,1.94,0,2.91,0,1.94,0,3.88,0,5.82-.12A4.22,4.22,0,0,0,46.93,65a5.32,5.32,0,0,0,1-4.33A3.53,3.53,0,0,0,45.29,57.52Z"/><path d="M35,51.23c1.24,0,2.49,0,3.73,0,1.08,0,2.16,0,3.23,0a13.73,13.73,0,0,0,2.34-.28,3.41,3.41,0,0,0,2.55-1.72,4.61,4.61,0,0,0,.37-2.76A2.84,2.84,0,0,0,45,43.82a17.35,17.35,0,0,0-3-.41c-2.32-.06-4.64,0-7,0-.35,0-.43.12-.43.45q0,3.48,0,7C34.6,51.13,34.71,51.24,35,51.23Z"/><path d="M55,0a55,55,0,1,0,55,55A55,55,0,0,0,55,0Zm8.75,38.72H78c0,1.1,0,2.18,0,3.25,0,.08-.15.18-.24.23a.64.64,0,0,1-.27,0H63.72Zm-9.79,29a9.5,9.5,0,0,1-4.66,4,19.42,19.42,0,0,1-7.16,1c-5,0-10.05,0-15.08,0l-.59,0V37.19l.59,0c5.39,0,10.78,0,16.17,0a15.91,15.91,0,0,1,5.51.84A7.91,7.91,0,0,1,53.82,43a9.59,9.59,0,0,1-.36,7.57,6.49,6.49,0,0,1-2.71,2.69l-.54.33s0,0,0,.09c.45.22.91.43,1.35.68a7.77,7.77,0,0,1,3.92,6.26A10.69,10.69,0,0,1,53.93,67.7ZM83.5,60.8l-.36,0H65c.05.49.08.94.15,1.38A5.59,5.59,0,0,0,70.47,67a6.83,6.83,0,0,0,3.48-.48,4.25,4.25,0,0,0,2-1.81,1,1,0,0,1,1-.57c1.85,0,3.71,0,5.56,0h.58a8.62,8.62,0,0,1-.25,1.1A10.62,10.62,0,0,1,79.27,70a12.94,12.94,0,0,1-8.12,2.45,13.79,13.79,0,0,1-8.94-3.09,9.77,9.77,0,0,1-3.4-5.62,19.69,19.69,0,0,1,.2-10,11,11,0,0,1,4.17-6,12.8,12.8,0,0,1,8.25-2.32,13.37,13.37,0,0,1,6.36,1.67,10.71,10.71,0,0,1,3.7,3.68,13.23,13.23,0,0,1,1.91,6.29,3.11,3.11,0,0,0,.09.44Z"/><path d="M70.89,51c-3.7-.05-5.39,2.55-5.68,5.37H76.52C76.52,53.43,74.49,51,70.89,51Z"/></g></g></svg>