<svg xmlns="http://www.w3.org/2000/svg" viewBox="0 0 110.92 110.92"><title>Dribbble</title><g id="Calque_2" data-name="Calque 2"><g id="Calque_1-2" data-name="Calque 1"><path d="M58.32,55.35a2,2,0,0,0-.08-.31c-.61-1.31-1.24-2.61-1.85-3.92-.15-.32-.35-.32-.65-.24-1.54.42-3.08.87-4.63,1.22a90.82,90.82,0,0,1-12.8,2c-3.1.25-6.21.33-9.32.47-.37,0-.55.09-.55.5a28.21,28.21,0,0,0,1.27,8.5,25.64,25.64,0,0,0,3.58,7.24c.63.88,1.32,1.73,2,2.65C41,64.82,48.38,58.45,58.32,55.35Z"/><path d="M63.51,69.75c-.89-3.19-2.07-6.29-3.1-9.44-.14-.42-.3-.48-.69-.31-2,.89-4,1.71-6,2.66a35.93,35.93,0,0,0-7.2,4.81,31.49,31.49,0,0,0-4.76,4.86c-1,1.27-1.82,2.66-2.72,4-.16.23-.21.42.1.61,1.33.82,2.61,1.73,4,2.47a25.36,25.36,0,0,0,9.95,2.94,26.71,26.71,0,0,0,12.87-2,2.09,2.09,0,0,0,0-.34C65.15,76.59,64.46,73.14,63.51,69.75Z"/><path d="M54.28,36.75C55.92,39.33,57.42,42,59,44.63c.16.28.31.34.6.21.72-.32,1.45-.62,2.17-.94a31,31,0,0,0,10.58-7.48c.34-.38.64-.8,1-1.21a26.64,26.64,0,0,0-12.81-6.28,26,26,0,0,0-11.34.3l.41.62C51.13,32.14,52.78,34.4,54.28,36.75Z"/><path d="M53.65,46c-.48-.83-1-1.66-1.45-2.48q-3.74-6.25-8-12.18c-.22-.31-.39-.31-.7-.15a27.15,27.15,0,0,0-14.06,17c-.15.54-.26,1.09-.41,1.71a104,104,0,0,0,24.92-3.3C53.82,46.37,53.74,46.2,53.65,46Z"/><path d="M81.64,59.6c-1.28-.27-2.56-.59-3.84-.83a38.32,38.32,0,0,0-11.26-.38c-.39,0-.78.11-1.26.18a121.49,121.49,0,0,1,5.27,19.31c.75-.57,1.43-1.06,2.07-1.59A27,27,0,0,0,82,60.23C82.11,59.85,82,59.68,81.64,59.6Z"/><path d="M55.46,0a55.46,55.46,0,1,0,55.46,55.46A55.46,55.46,0,0,0,55.46,0ZM87.08,57.38a2.54,2.54,0,0,0-.09.39,32.36,32.36,0,0,1-2,9.07,31.53,31.53,0,0,1-13.75,16,30.9,30.9,0,0,1-11.53,3.91l-2.29.3H53.54c-.13,0-.25-.07-.38-.09-1.59-.24-3.21-.4-4.78-.74A30.32,30.32,0,0,1,36.6,80.83a31.61,31.61,0,0,1-12.45-21.1q-.16-1.17-.31-2.34V53.54a3.4,3.4,0,0,0,.09-.44,32.33,32.33,0,0,1,2-9A31.57,31.57,0,0,1,39.72,28.05,31,31,0,0,1,51.4,24.13l2.14-.29h3.74a3.61,3.61,0,0,0,.44.09,32.51,32.51,0,0,1,9.08,2,31.57,31.57,0,0,1,20,25.4c.09.73.2,1.46.3,2.19Z"/><path d="M61.31,49c.76,1.75,1.49,3.43,2.24,5.09.05.11.32.19.48.19,1.71-.09,3.42-.26,5.14-.29a62.32,62.32,0,0,1,11.06.82l2.23.36a27.08,27.08,0,0,0-6.12-16.83C72.28,43.27,67.09,46.54,61.31,49Z"/></g></g></svg>
