<svg xmlns="http://www.w3.org/2000/svg" viewBox="0 0 65.59 65.59"><title>Wordpress</title><g id="Calque_2" data-name="Calque 2"><g id="Calque_1-2" data-name="Calque 1"><path d="M31.74,0a1,1,0,0,1-.92,0Z"/><path d="M34.76,0a1,1,0,0,1-.92,0Z"/><path d="M0,30.83a1,1,0,0,1,0,.92Z"/><path d="M65.59,31.74a1,1,0,0,1,0-.92Z"/><path d="M0,33.84a1,1,0,0,1,0,.92Z"/><path d="M65.59,34.76a1,1,0,0,1,0-.92Z"/><path d="M30.83,65.59a1,1,0,0,1,.92,0Z"/><path d="M33.84,65.59a.88.88,0,0,1,.79,0Z"/><path d="M35.69,65.51c.9-.23,1.84-.24,2.75-.41A32.86,32.86,0,0,0,65.36,36.68a2.36,2.36,0,0,1,.23-1.14v-.79a1.38,1.38,0,0,1,0-.92v-2.1a1.38,1.38,0,0,1,0-.92v-.66a.32.32,0,0,1-.07-.25c-.23-.91-.25-1.85-.41-2.78A32.88,32.88,0,0,0,37.27.29,8,8,0,0,1,35.42,0h-.66a1.38,1.38,0,0,1-.92,0h-2.1a1.38,1.38,0,0,1-.92,0h-.66a.41.41,0,0,1-.29.07C28.94.29,28,.34,27,.5A32.9,32.9,0,0,0,.23,28.84,2.68,2.68,0,0,1,0,30v.79a1.38,1.38,0,0,1,0,.92v2.1a1.38,1.38,0,0,1,0,.92v.79a.32.32,0,0,1,.07.23c.24.87.26,1.78.41,2.66A32.86,32.86,0,0,0,28.9,65.36a2.36,2.36,0,0,1,1.14.23h.79a1.38,1.38,0,0,1,.92,0h2.1a1,1,0,0,1,.79,0h.79A.4.4,0,0,1,35.69,65.51Zm21.5-34.76a26.19,26.19,0,0,0,1.56-11.46c-.06-.14-.11-.27.13-.24a28.43,28.43,0,0,1,3.37,14.2c-.34,10.44-4.94,18.57-13.61,24.39A6.92,6.92,0,0,1,48,58s-.12,0-.19,0c-.09-.26.06-.47.13-.69Q52.57,44,57.19,30.75ZM9,15.39C15.5,7,24,2.87,34.68,3.41a28.42,28.42,0,0,1,17.3,7,1.07,1.07,0,0,1,.46.56,4.93,4.93,0,0,0-3,1,5.42,5.42,0,0,0-1.91,5.81,12.54,12.54,0,0,0,1.63,3.63c.45.75.91,1.49,1.35,2.25A14.46,14.46,0,0,1,52,35.54Q49.88,42.77,47.71,50c0,.12-.05.26-.2.33-.22-.12-.22-.36-.29-.55l-10.09-30c-.25-.75-.22-.78.6-.84s1.61-.11,2.42-.21a1.19,1.19,0,0,0,1.18-1.37,1.17,1.17,0,0,0-1.4-1.06c-1.77.08-3.54.18-5.3.29a75.74,75.74,0,0,1-9.1-.23c-.41,0-.83-.07-1.24-.06a1.16,1.16,0,0,0-1.13,1.14,1.09,1.09,0,0,0,.93,1.23c.84.13,1.69.21,2.54.26a.94.94,0,0,1,1,.7Q29.61,25.32,31.72,31a1.53,1.53,0,0,1,0,1.08q-3,9-6,18a.87.87,0,0,1-.24.47c-.24-.11-.23-.35-.3-.54Q20.09,34.91,15,19.78c-.25-.75-.21-.81.58-.87S17.2,18.8,18,18.7a1.17,1.17,0,0,0,1.17-1.36c-.06-.71-.54-1.11-1.38-1.06-2.71.16-5.41.36-8.12.36-.43,0-1,.19-1.23-.16S8.76,15.72,9,15.39ZM19.7,59c-.23.21-.52-.09-.74-.22C9.53,53.47,4.27,45.43,3.39,34.6A28.11,28.11,0,0,1,5.48,21.72c.09-.23.13-.51.37-.67.22.16.24.42.32.64Q12.87,40,19.54,58.31C19.63,58.55,19.88,58.86,19.7,59Zm5.39,2.22c-.4-.11-.61-.23-.44-.71q4.25-12.29,8.48-24.59a2.35,2.35,0,0,1,.14-.28,1.08,1.08,0,0,1,.38.66Q38,48.17,42.31,60c.17.46.11.65-.36.8A29.5,29.5,0,0,1,25.09,61.25Z"/><path d="M58.88,19l-.13.24c0-.11-.12-.22,0-.31S58.84,19,58.88,19Z"/></g></g></svg>
